<svg id="Camada_1" data-name="Camada 1" xmlns="http://www.w3.org/2000/svg" viewBox="0 0 644.92 350.32"><defs><style>.cls-1{fill:#7ac943;}.cls-1,.cls-2,.cls-4{fill-rule:evenodd;}.cls-2,.cls-3,.cls-7{fill:#dbdbdb;}.cls-4{fill:#999;}.cls-5{fill:#8cc63f;}.cls-6{fill:#eaeaea;}.cls-7{opacity:0.2;}</style></defs><title>logoVHack</title><path class="cls-1" d="M500.69,314.14a24.45,24.45,0,0,0,18.11-14.32l15.5-35.66L439,222.73l-15.5,35.66a24.45,24.45,0,0,0,1.88,23l22.23,34.49-3.68,8.47-40.38,7.28A24.45,24.45,0,0,0,385.41,346l-15.5,35.66L465.24,423l15.5-35.66a24.45,24.45,0,0,0-1.88-23l-22.23-34.49,3.68-8.47Z" transform="translate(-337.56 -198.83)"/><path class="cls-2" d="M505.09,301.1c.22-.17.72-.51,1.32-.91a16,16,0,0,0,4.75-5c2.33-3.81,10-18.45,2.59-23.19-9.28-5.92-21.26-8.48-28.2,0-11.54,14.1-19.09,10.34-23.07,7.69-7.69-5.13-9.47-8.06-14.1-11.54-5.13-3.85-14.1-5.13-15.38,3.85a5.82,5.82,0,0,0,1.08,3.72l19.13,32.85a2.93,2.93,0,0,1,.16,2.64L448,323.9l-3,6.47c-3.08,6.67-4.26,16-4.26,19.86,0,9.06-3.43,21.58-11.54,25.63C418.91,381,404.81,381,397,375.18c-5.45-4-13-.32-15.77,5.86l-.6,2a2.93,2.93,0,0,0,1.52,3.85L453,417.73a2.93,2.93,0,0,0,3.85-1.52l14.39-33.11c4-7.24.49-8.52-2.38-8.52-6.41,0-9.8-1.85-12.82-5.13-4-4.36-7.69-15.38-6.41-25.63a50.85,50.85,0,0,1,3.06-12.14l7-17.59a2.93,2.93,0,0,1,2.07-1.77l27-6.12a125.13,125.13,0,0,0,16.31-5.09" transform="translate(-337.56 -198.83)"/><rect class="cls-3" x="407.89" y="349.07" width="13.85" height="119.22" transform="translate(-462.89 427.39) rotate(-66.51)"/><path class="cls-4" d="M362.59,386.8l103.86,45.14-1.08,2.48L361.51,389.28ZM479,440.36l-8.19-3.56,5.52-12.71-114.81-49.9L356,386.9l-8.19-3.56a3.51,3.51,0,0,0-2.76,6.36l131.2,57a3.51,3.51,0,0,0,2.76-6.36Z" transform="translate(-337.56 -198.83)"/><rect class="cls-3" x="487.31" y="174.31" width="6.93" height="119.22" transform="translate(-256.94 391.95) rotate(-66.51)"/><path class="cls-4" d="M541.63,259,437.76,213.83l1.08-2.48L542.7,256.49Zm17.51-2.9-131.2-57a3.51,3.51,0,0,0-2.77,6.36l8.19,3.56-5.52,12.71,114.81,49.9,5.52-12.71,8.19,3.56a3.51,3.51,0,0,0,2.77-6.36Z" transform="translate(-337.56 -198.83)"/><path class="cls-5" d="M555.28,426.75l-29.62-75.45h15.45l20.57,57,21.21-57h14.49l-30.48,75.45Z" transform="translate(-337.56 -198.83)"/><path class="cls-5" d="M608.1,426.75v-99h17.62v39.44H672V327.73h17.62v99H672V383.11H625.72v43.64Z" transform="translate(-337.56 -198.83)"/><path class="cls-5" d="M747.55,426.75V406.61h-42.1V390l39.86-62.24h19v63.78h14.41v15.11H764.33v20.14Zm0-35.25v-40l-25,40Z" transform="translate(-337.56 -198.83)"/><path class="cls-5" d="M876.22,340.88l-13.71,10.07q-9.23-9.79-20.84-9.79-15.11,0-24.55,10.14t-9.44,25.25q0,16.09,9.44,26.43t24.55,10.35q12.87,0,22.24-12l14.55,10.35q-12.87,17.62-36.92,17.62-23.08,0-37.69-14.27t-14.62-37.34q0-23.64,14.62-38t37.69-14.41Q862.65,325.21,876.22,340.88Z" transform="translate(-337.56 -198.83)"/><path class="cls-5" d="M890.35,426.75v-99H908v42h.84l41-42h23.78l-46.3,45.74,49.37,53.29H951.89L909,378.08h-1v48.67Z" transform="translate(-337.56 -198.83)"/><path class="cls-6" d="M891.32,279.23a7,7,0,0,0-.48-2.69,5.22,5.22,0,0,0-3.27-3,7.67,7.67,0,0,0-2.44-.37,8.07,8.07,0,0,0-2.2.3,10.71,10.71,0,0,0-2.09.84,12.93,12.93,0,0,0-2,1.29,14.26,14.26,0,0,0-1.77,1.66v-4.12a11.48,11.48,0,0,1,3.62-2.4,12.74,12.74,0,0,1,4.88-.83,11.79,11.79,0,0,1,3.82.6,8.75,8.75,0,0,1,3,1.74,8.06,8.06,0,0,1,2,2.83,9.55,9.55,0,0,1,.74,3.86,13.24,13.24,0,0,1-.46,3.61,11.14,11.14,0,0,1-1.38,3,14.65,14.65,0,0,1-2.33,2.74,33,33,0,0,1-3.3,2.67q-2.37,1.69-3.9,2.88a17.14,17.14,0,0,0-2.44,2.24,6.48,6.48,0,0,0-1.26,2.08,7.28,7.28,0,0,0-.36,2.4h16.72V304H875.8v-1.66a13.84,13.84,0,0,1,.47-3.79,9.84,9.84,0,0,1,1.55-3.11,17.26,17.26,0,0,1,2.82-3q1.74-1.48,4.27-3.33a27.17,27.17,0,0,0,3.06-2.51,13.05,13.05,0,0,0,2-2.39,8.6,8.6,0,0,0,1.07-2.42A10.48,10.48,0,0,0,891.32,279.23Z" transform="translate(-337.56 -198.83)"/><path class="cls-6" d="M923,287.07a33,33,0,0,1-.76,7.47A17.37,17.37,0,0,1,920,300a9.91,9.91,0,0,1-3.54,3.4,9.68,9.68,0,0,1-4.76,1.16,9,9,0,0,1-4.51-1.11,9.44,9.44,0,0,1-3.34-3.24,16.44,16.44,0,0,1-2.06-5.23,32.39,32.39,0,0,1-.7-7.11,36.66,36.66,0,0,1,.74-7.77,17.79,17.79,0,0,1,2.17-5.65,9.64,9.64,0,0,1,3.55-3.44,10,10,0,0,1,4.86-1.16Q923,269.86,923,287.07Zm-3.93.37q0-14.33-6.81-14.33-7.19,0-7.19,14.59,0,13.6,7,13.6T919,287.44Z" transform="translate(-337.56 -198.83)"/><path class="cls-6" d="M941.9,304h-3.84V275a8.85,8.85,0,0,1-1.3,1,21.16,21.16,0,0,1-1.92,1.14q-1.06.56-2.25,1.05a16.43,16.43,0,0,1-2.31.77v-3.89a22.38,22.38,0,0,0,2.68-.95q1.42-.6,2.79-1.33t2.59-1.55a20.63,20.63,0,0,0,2.11-1.58h1.45Z" transform="translate(-337.56 -198.83)"/><path class="cls-6" d="M952.9,294.63a8.92,8.92,0,0,1,.42-2.68,9.71,9.71,0,0,1,1.21-2.52,10,10,0,0,1,1.94-2.13,9.27,9.27,0,0,1,2.63-1.52,10,10,0,0,1-3.47-3.13,7.39,7.39,0,0,1-1.29-4.23,8.15,8.15,0,0,1,.71-3.42,8.23,8.23,0,0,1,2-2.72,9.15,9.15,0,0,1,3-1.79,11.19,11.19,0,0,1,7.52,0,9.33,9.33,0,0,1,3,1.8,8.1,8.1,0,0,1,2,2.72,8.22,8.22,0,0,1,.7,3.4,7.39,7.39,0,0,1-1.29,4.23,10.08,10.08,0,0,1-3.42,3.13,9.17,9.17,0,0,1,2.6,1.52,10.14,10.14,0,0,1,1.93,2.13,9.71,9.71,0,0,1,1.21,2.52,8.92,8.92,0,0,1,.42,2.68,10,10,0,0,1-.8,4,9,9,0,0,1-2.24,3.13,10.31,10.31,0,0,1-3.44,2,12.87,12.87,0,0,1-4.41.73,12.69,12.69,0,0,1-4.38-.73,10.46,10.46,0,0,1-3.44-2,9.07,9.07,0,0,1-2.26-3.13A9.85,9.85,0,0,1,952.9,294.63Zm4.17-.33a7.94,7.94,0,0,0,.48,2.83,6.11,6.11,0,0,0,1.36,2.15,5.92,5.92,0,0,0,2.13,1.37,7.7,7.7,0,0,0,2.77.48,7.32,7.32,0,0,0,2.72-.49,6.32,6.32,0,0,0,2.14-1.38,6.2,6.2,0,0,0,1.41-2.15,7.53,7.53,0,0,0,.5-2.81,7.17,7.17,0,0,0-.48-2.63,6.59,6.59,0,0,0-1.37-2.17A6.44,6.44,0,0,0,966.6,288a7.44,7.44,0,0,0-5.47,0A6.42,6.42,0,0,0,959,289.4a6.51,6.51,0,0,0-1.42,2.15A7.18,7.18,0,0,0,957.07,294.3Zm1.19-15.57a5.57,5.57,0,0,0,3.39,5.19,5.53,5.53,0,0,0,4.32,0,5.59,5.59,0,0,0,1.77-1.21,5.84,5.84,0,0,0,1.19-1.78,5.4,5.4,0,0,0,.45-2.19,5.74,5.74,0,0,0-.43-2.25,5.52,5.52,0,0,0-5.14-3.4,5.59,5.59,0,0,0-2.26.44,5.47,5.47,0,0,0-1.76,1.21,5.29,5.29,0,0,0-1.14,1.79A6,6,0,0,0,958.27,278.73Z" transform="translate(-337.56 -198.83)"/><path class="cls-3" d="M351.24,535.84h10.9v4.7H345V538.6a9,9,0,0,1,.66-3.54,11.75,11.75,0,0,1,1.67-2.81,14.51,14.51,0,0,1,2.2-2.2q1.19-1,2.27-1.73t2-1.54a11.31,11.31,0,0,0,1.43-1.46,5.54,5.54,0,0,0,.87-1.47,4.36,4.36,0,0,0,.29-1.59,3.19,3.19,0,0,0-.93-2.49,4.14,4.14,0,0,0-2.85-.84,9.57,9.57,0,0,0-6.34,2.63v-5a13.61,13.61,0,0,1,7.56-2.17,11.19,11.19,0,0,1,3.5.51,7.41,7.41,0,0,1,2.63,1.46,6.22,6.22,0,0,1,1.64,2.3,7.76,7.76,0,0,1,.56,3,8.51,8.51,0,0,1-.55,3.15,9.72,9.72,0,0,1-1.45,2.51,13.16,13.16,0,0,1-2.09,2.07q-1.18.94-2.46,1.82-.86.61-1.66,1.21a15.73,15.73,0,0,0-1.41,1.18,6.42,6.42,0,0,0-1,1.14A2,2,0,0,0,351.24,535.84Z" transform="translate(-337.56 -198.83)"/><path class="cls-3" d="M381.72,514.84V531h3.08v4.23h-3.08v5.27h-5.16v-5.27h-11.2v-4.43q1.49-1.67,3.08-3.65t3.08-4.08q1.49-2.1,2.77-4.22a42.36,42.36,0,0,0,2.18-4.06ZM370.43,531h6.13v-9q-.63,1.16-1.36,2.36t-1.54,2.35q-.81,1.16-1.63,2.24T370.43,531Z" transform="translate(-337.56 -198.83)"/><path class="cls-3" d="M405.77,540.54h-5.64V530.11q0-4-2.94-4a3,3,0,0,0-2.44,1.13,4.35,4.35,0,0,0-.93,2.87v10.46h-5.66V513.37h5.66v11.54h.07a6.44,6.44,0,0,1,5.65-3.17q6.24,0,6.24,7.53Z" transform="translate(-337.56 -198.83)"/><path class="cls-3" d="M422.22,527.29a4.91,4.91,0,0,0-2.38-.56,3.44,3.44,0,0,0-2.89,1.35,5.91,5.91,0,0,0-1,3.68v8.76h-5.66V522.19h5.66v3.4H416q1.34-3.73,4.84-3.73a3.65,3.65,0,0,1,1.4.21Z" transform="translate(-337.56 -198.83)"/><path class="cls-3" d="M423.87,540.05v-4.59a12.08,12.08,0,0,0,2.79,1.25,9.26,9.26,0,0,0,2.63.41,5.64,5.64,0,0,0,2.37-.41,1.33,1.33,0,0,0,.87-1.25,1.16,1.16,0,0,0-.39-.9,3.66,3.66,0,0,0-1-.63,11.66,11.66,0,0,0-1.35-.48q-.74-.22-1.42-.48a13.55,13.55,0,0,1-1.93-.89A5.56,5.56,0,0,1,425,531a4.32,4.32,0,0,1-.86-1.45,5.78,5.78,0,0,1-.3-2,5,5,0,0,1,.67-2.65,5.49,5.49,0,0,1,1.79-1.82,8.19,8.19,0,0,1,2.56-1,13.32,13.32,0,0,1,3-.33,16.59,16.59,0,0,1,2.47.19,18.35,18.35,0,0,1,2.47.55v4.37a8.94,8.94,0,0,0-2.3-.94,9.72,9.72,0,0,0-2.41-.31,5.35,5.35,0,0,0-1,.1,3.45,3.45,0,0,0-.87.29,1.59,1.59,0,0,0-.59.48,1.12,1.12,0,0,0-.21.67,1.24,1.24,0,0,0,.32.86,2.8,2.8,0,0,0,.84.62,8.18,8.18,0,0,0,1.16.47l1.26.42a16.41,16.41,0,0,1,2,.86,6.57,6.57,0,0,1,1.57,1.09,4.3,4.3,0,0,1,1,1.47,5.88,5.88,0,0,1-.36,4.79,5.67,5.67,0,0,1-1.88,1.88,8.53,8.53,0,0,1-2.71,1.06,15,15,0,0,1-3.18.33A16.43,16.43,0,0,1,423.87,540.05Z" transform="translate(-337.56 -198.83)"/><path class="cls-3" d="M464.85,540.54V537.2h-.07a6.7,6.7,0,0,1-2.65,2.76,7.73,7.73,0,0,1-4,1,7,7,0,0,1-5.53-2.47,10.09,10.09,0,0,1-2.14-6.83,10.73,10.73,0,0,1,2.34-7.19,7.59,7.59,0,0,1,6.07-2.75,6.1,6.1,0,0,1,5.88,3.39h.07V513.37h1.65v27.17Zm0-11.16a6.23,6.23,0,0,0-1.62-4.35,5.61,5.61,0,0,0-4.36-1.78,6,6,0,0,0-4.77,2.21,10.89,10.89,0,0,0-.19,12,5.38,5.38,0,0,0,4.36,2.07,6.14,6.14,0,0,0,4.86-1.94,6.9,6.9,0,0,0,1.72-4.74Z" transform="translate(-337.56 -198.83)"/><path class="cls-3" d="M472.77,531.43a9.07,9.07,0,0,0,1.75,5.91,5.86,5.86,0,0,0,4.79,2.13,9.75,9.75,0,0,0,6-2.28V539a10.72,10.72,0,0,1-6.36,2,7.2,7.2,0,0,1-5.73-2.54Q471,535.9,471,531.25a10.23,10.23,0,0,1,2.29-6.76,7.36,7.36,0,0,1,5.94-2.75,6.2,6.2,0,0,1,5.25,2.4,10.58,10.58,0,0,1,1.83,6.56v.73Zm11.86-1.5a8.12,8.12,0,0,0-1.52-4.93,4.74,4.74,0,0,0-3.91-1.76,5.73,5.73,0,0,0-4.27,1.73,8.3,8.3,0,0,0-2.09,5Z" transform="translate(-337.56 -198.83)"/><path class="cls-3" d="M513.43,540.54v-11a7.77,7.77,0,0,0-1.18-4.78,4.4,4.4,0,0,0-3.69-1.51,5.63,5.63,0,0,0-4.16,1.85,7.28,7.28,0,0,0-1.79,5.29v10.16H501V513.37h1.65v12.11h.07a6.89,6.89,0,0,1,6.31-3.75,5.5,5.5,0,0,1,4.53,1.92,8.52,8.52,0,0,1,1.56,5.5v11.38Z" transform="translate(-337.56 -198.83)"/><path class="cls-3" d="M531.56,540.54v-3.67h-.07a7.19,7.19,0,0,1-2.55,3,6.55,6.55,0,0,1-3.72,1.12,5.71,5.71,0,0,1-4.14-1.47,4.93,4.93,0,0,1-1.52-3.71q0-4.8,6.36-5.81l5.64-.84q0-5.91-4.44-5.91a9.05,9.05,0,0,0-5.9,2.44v-2a9,9,0,0,1,2.77-1.38,10.57,10.57,0,0,1,3.29-.57,5.54,5.54,0,0,1,4.38,1.76,7.5,7.5,0,0,1,1.55,5.11v11.93Zm-5.05-9.14a8.75,8.75,0,0,0-4,1.33,4.16,4.16,0,0,0-.08,5.69,4.14,4.14,0,0,0,3,1.06,5.67,5.67,0,0,0,4.41-2,7.3,7.3,0,0,0,1.76-5.06v-1.79Z" transform="translate(-337.56 -198.83)"/><path class="cls-3" d="M550.61,539.73a9.13,9.13,0,0,1-4.87,1.25,7.7,7.7,0,0,1-6-2.57,9.73,9.73,0,0,1-2.29-6.73,10.12,10.12,0,0,1,2.58-7.16,8.63,8.63,0,0,1,6.63-2.79,10.08,10.08,0,0,1,4.07.86v1.86a8.06,8.06,0,0,0-4.32-1.22,6.59,6.59,0,0,0-5.23,2.32,8.86,8.86,0,0,0-2,6,8.57,8.57,0,0,0,1.84,5.73,6,6,0,0,0,4.85,2.17,8,8,0,0,0,4.8-1.47Z" transform="translate(-337.56 -198.83)"/><path class="cls-3" d="M565.52,540.54l-8.78-9.07h-.07v9.07H555V513.37h1.65v17.51h.07l8.33-8.69h2.13l-8.71,8.89,9.41,9.46Z" transform="translate(-337.56 -198.83)"/><path class="cls-3" d="M572.12,517.56a1.38,1.38,0,0,1-1.36-1.4,1.21,1.21,0,0,1,.42-1,1.39,1.39,0,0,1,.94-.37,1.46,1.46,0,0,1,1,.36,1.2,1.2,0,0,1,.42,1,1.41,1.41,0,0,1-1.4,1.4Zm-.81,23V522.19H573v18.35Z" transform="translate(-337.56 -198.83)"/><path class="cls-3" d="M591.31,540.54V529.86q0-6.61-4.77-6.61a5.53,5.53,0,0,0-4.35,1.94,7,7,0,0,0-1.7,4.81v10.54h-1.65V522.19h1.65v3.33h.07a6.64,6.64,0,0,1,6.27-3.78,5.48,5.48,0,0,1,4.55,2,8.89,8.89,0,0,1,1.58,5.65v11.16Z" transform="translate(-337.56 -198.83)"/><path class="cls-3" d="M613.15,539.17q0,5.18-2.26,7.58t-7,2.4a12.25,12.25,0,0,1-5.47-1.4V546a11.38,11.38,0,0,0,5.5,1.61q7.6,0,7.6-8v-2.38h-.07a7.14,7.14,0,0,1-6.61,3.75,7,7,0,0,1-5.53-2.46,10.07,10.07,0,0,1-2.14-6.85,10.83,10.83,0,0,1,2.31-7.17,7.54,7.54,0,0,1,6.09-2.78,6.21,6.21,0,0,1,5.88,3.35h.07v-2.9h1.65Zm-1.65-9.95a6,6,0,0,0-1.64-4.21,5.55,5.55,0,0,0-4.27-1.77,6,6,0,0,0-4.87,2.28,9.27,9.27,0,0,0-1.85,6,9.06,9.06,0,0,0,1.69,5.85,5.47,5.47,0,0,0,4.47,2.09,6.08,6.08,0,0,0,4.71-1.92,6.7,6.7,0,0,0,1.76-4.7Z" transform="translate(-337.56 -198.83)"/><path class="cls-3" d="M618.33,545h-1.4l2.69-8.51h1.83Z" transform="translate(-337.56 -198.83)"/><path class="cls-3" d="M644.49,540.29a5.69,5.69,0,0,1-2.42.61Q638,540.9,638,536V523.69h-3.3v-1.5H638v-4.77l.82-.29c.29-.08.56-.17.83-.27v5.32h4.84v1.5h-4.84v12.11a4.87,4.87,0,0,0,.6,2.75,2.31,2.31,0,0,0,2,.85,4.55,4.55,0,0,0,2.2-.66Z" transform="translate(-337.56 -198.83)"/><path class="cls-3" d="M648.53,531.43a9.07,9.07,0,0,0,1.75,5.91,5.86,5.86,0,0,0,4.79,2.13,9.75,9.75,0,0,0,6-2.28V539a10.72,10.72,0,0,1-6.36,2,7.2,7.2,0,0,1-5.73-2.54q-2.19-2.54-2.19-7.19a10.23,10.23,0,0,1,2.29-6.76,7.36,7.36,0,0,1,5.94-2.75,6.2,6.2,0,0,1,5.25,2.4,10.58,10.58,0,0,1,1.83,6.56v.73Zm11.86-1.5a8.12,8.12,0,0,0-1.52-4.93,4.74,4.74,0,0,0-3.91-1.76,5.73,5.73,0,0,0-4.27,1.73,8.3,8.3,0,0,0-2.09,5Z" transform="translate(-337.56 -198.83)"/><path class="cls-3" d="M678.54,539.73a9.13,9.13,0,0,1-4.87,1.25,7.7,7.7,0,0,1-6-2.57,9.73,9.73,0,0,1-2.29-6.73,10.12,10.12,0,0,1,2.58-7.16,8.63,8.63,0,0,1,6.63-2.79,10.08,10.08,0,0,1,4.07.86v1.86a8.06,8.06,0,0,0-4.32-1.22,6.59,6.59,0,0,0-5.23,2.32,8.86,8.86,0,0,0-2,6,8.57,8.57,0,0,0,1.84,5.73,6,6,0,0,0,4.85,2.17,8,8,0,0,0,4.8-1.47Z" transform="translate(-337.56 -198.83)"/><path class="cls-3" d="M695.42,540.54V529.86q0-6.61-4.77-6.61a5.53,5.53,0,0,0-4.35,1.94,7,7,0,0,0-1.7,4.81v10.54H683V522.19h1.65v3.33h.07a6.64,6.64,0,0,1,6.27-3.78,5.48,5.48,0,0,1,4.55,2,8.89,8.89,0,0,1,1.58,5.65v11.16Z" transform="translate(-337.56 -198.83)"/><path class="cls-3" d="M710,541a8,8,0,0,1-6.35-2.64,11.47,11.47,0,0,1,.11-14,8.47,8.47,0,0,1,6.44-2.58,7.87,7.87,0,0,1,6.2,2.56,10.32,10.32,0,0,1,2.28,7.1,10.15,10.15,0,0,1-2.32,6.93A8,8,0,0,1,710,541Zm.13-17.74a6.54,6.54,0,0,0-5.17,2.19,8.88,8.88,0,0,0-1.93,6.08,8.56,8.56,0,0,0,1.88,5.79,6.43,6.43,0,0,0,5.14,2.19,6.28,6.28,0,0,0,5.11-2.15,10.94,10.94,0,0,0,0-12A6.26,6.26,0,0,0,710.08,523.25Z" transform="translate(-337.56 -198.83)"/><path class="cls-3" d="M723.18,540.54V513.37h1.65v27.17Z" transform="translate(-337.56 -198.83)"/><path class="cls-3" d="M738.07,541a8,8,0,0,1-6.35-2.64,11.47,11.47,0,0,1,.11-14,8.47,8.47,0,0,1,6.44-2.58,7.87,7.87,0,0,1,6.2,2.56,10.32,10.32,0,0,1,2.28,7.1,10.15,10.15,0,0,1-2.32,6.93A8,8,0,0,1,738.07,541Zm.13-17.74a6.54,6.54,0,0,0-5.17,2.19,8.88,8.88,0,0,0-1.93,6.08,8.56,8.56,0,0,0,1.88,5.79,6.43,6.43,0,0,0,5.14,2.19,6.28,6.28,0,0,0,5.11-2.15,10.94,10.94,0,0,0,0-12A6.26,6.26,0,0,0,738.2,523.25Z" transform="translate(-337.56 -198.83)"/><path class="cls-3" d="M766,539.17q0,5.18-2.26,7.58t-7,2.4a12.25,12.25,0,0,1-5.47-1.4V546a11.38,11.38,0,0,0,5.5,1.61q7.6,0,7.6-8v-2.38h-.07a7.14,7.14,0,0,1-6.61,3.75,7,7,0,0,1-5.53-2.46,10.07,10.07,0,0,1-2.14-6.85,10.83,10.83,0,0,1,2.31-7.17,7.54,7.54,0,0,1,6.09-2.78,6.21,6.21,0,0,1,5.88,3.35h.07v-2.9H766Zm-1.65-9.95a6,6,0,0,0-1.64-4.21,5.55,5.55,0,0,0-4.27-1.77,6,6,0,0,0-4.87,2.28,9.27,9.27,0,0,0-1.85,6,9.06,9.06,0,0,0,1.69,5.85,5.47,5.47,0,0,0,4.47,2.09,6.08,6.08,0,0,0,4.71-1.92,6.7,6.7,0,0,0,1.76-4.7Z" transform="translate(-337.56 -198.83)"/><path class="cls-3" d="M772.66,517.56a1.38,1.38,0,0,1-1.36-1.4,1.21,1.21,0,0,1,.42-1,1.39,1.39,0,0,1,.94-.37,1.46,1.46,0,0,1,1,.36,1.2,1.2,0,0,1,.42,1,1.41,1.41,0,0,1-1.4,1.4Zm-.81,23V522.19h1.65v18.35Z" transform="translate(-337.56 -198.83)"/><path class="cls-3" d="M790.34,540.54v-3.67h-.07a7.19,7.19,0,0,1-2.55,3A6.55,6.55,0,0,1,784,541a5.71,5.71,0,0,1-4.14-1.47,4.93,4.93,0,0,1-1.52-3.71q0-4.8,6.36-5.81l5.64-.84q0-5.91-4.44-5.91a9.05,9.05,0,0,0-5.9,2.44v-2a9,9,0,0,1,2.77-1.38,10.57,10.57,0,0,1,3.29-.57,5.54,5.54,0,0,1,4.38,1.76A7.5,7.5,0,0,1,792,528.6v11.93Zm-5.05-9.14a8.75,8.75,0,0,0-4,1.33,4.16,4.16,0,0,0-.08,5.69,4.14,4.14,0,0,0,3,1.06,5.67,5.67,0,0,0,4.41-2,7.3,7.3,0,0,0,1.76-5.06v-1.79Z" transform="translate(-337.56 -198.83)"/><path class="cls-3" d="M808,531.43a9.07,9.07,0,0,0,1.75,5.91,5.86,5.86,0,0,0,4.79,2.13,9.75,9.75,0,0,0,6-2.28V539a10.72,10.72,0,0,1-6.36,2,7.2,7.2,0,0,1-5.73-2.54q-2.19-2.54-2.19-7.19a10.23,10.23,0,0,1,2.29-6.76,7.36,7.36,0,0,1,5.94-2.75,6.2,6.2,0,0,1,5.25,2.4,10.58,10.58,0,0,1,1.83,6.56v.73Zm11.86-1.5A8.12,8.12,0,0,0,818.3,525a4.74,4.74,0,0,0-3.91-1.76,5.73,5.73,0,0,0-4.27,1.73,8.3,8.3,0,0,0-2.09,5Z" transform="translate(-337.56 -198.83)"/><path class="cls-3" d="M836.15,540.54V513.37h1.65v27.17Z" transform="translate(-337.56 -198.83)"/><path class="cls-3" d="M844.48,517.56a1.38,1.38,0,0,1-1.36-1.4,1.21,1.21,0,0,1,.42-1,1.39,1.39,0,0,1,.94-.37,1.46,1.46,0,0,1,1,.36,1.2,1.2,0,0,1,.42,1,1.41,1.41,0,0,1-1.4,1.4Zm-.81,23V522.19h1.65v18.35Z" transform="translate(-337.56 -198.83)"/><path class="cls-3" d="M852.92,537.28h-.07v3.26H851.2V513.37h1.65V526h.07a7.25,7.25,0,0,1,2.82-3.13,7.7,7.7,0,0,1,4-1.1,6.65,6.65,0,0,1,5.46,2.41,10.07,10.07,0,0,1,2,6.55,11.54,11.54,0,0,1-2.28,7.45A7.23,7.23,0,0,1,859,541,6.47,6.47,0,0,1,852.92,537.28Zm-.07-6.83v2.31a7,7,0,0,0,1.74,4.74,5.79,5.79,0,0,0,4.57,2,5.41,5.41,0,0,0,4.57-2.41,10.51,10.51,0,0,0,1.76-6.33,8.53,8.53,0,0,0-1.61-5.47,5.22,5.22,0,0,0-4.3-2,6,6,0,0,0-5,2.15A7.74,7.74,0,0,0,852.85,530.45Z" transform="translate(-337.56 -198.83)"/><path class="cls-3" d="M872.15,531.43a9.07,9.07,0,0,0,1.75,5.91,5.86,5.86,0,0,0,4.79,2.13,9.75,9.75,0,0,0,6-2.28V539a10.72,10.72,0,0,1-6.36,2,7.2,7.2,0,0,1-5.73-2.54q-2.19-2.54-2.19-7.19a10.23,10.23,0,0,1,2.29-6.76,7.36,7.36,0,0,1,5.94-2.75,6.2,6.2,0,0,1,5.25,2.4,10.58,10.58,0,0,1,1.83,6.56v.73Zm11.86-1.5a8.12,8.12,0,0,0-1.52-4.93,4.74,4.74,0,0,0-3.91-1.76,5.73,5.73,0,0,0-4.27,1.73,8.3,8.3,0,0,0-2.09,5Z" transform="translate(-337.56 -198.83)"/><path class="cls-3" d="M898.94,523.91a3.23,3.23,0,0,0-1.94-.59,4.28,4.28,0,0,0-3.64,2.24,11.57,11.57,0,0,0-1.47,6.36v8.62h-1.61V522.19h1.61v4.07H892a6.68,6.68,0,0,1,2-3.26,4.71,4.71,0,0,1,3.15-1.17,4.89,4.89,0,0,1,1.83.32Z" transform="translate(-337.56 -198.83)"/><path class="cls-3" d="M914.69,540.54V537.2h-.07A6.7,6.7,0,0,1,912,540a7.73,7.73,0,0,1-4,1,7,7,0,0,1-5.53-2.47,10.09,10.09,0,0,1-2.14-6.83,10.73,10.73,0,0,1,2.34-7.19,7.59,7.59,0,0,1,6.07-2.75,6.1,6.1,0,0,1,5.88,3.39h.07V513.37h1.65v27.17Zm0-11.16a6.23,6.23,0,0,0-1.62-4.35,5.61,5.61,0,0,0-4.36-1.78,6,6,0,0,0-4.77,2.21,10.89,10.89,0,0,0-.19,12,5.38,5.38,0,0,0,4.36,2.07,6.14,6.14,0,0,0,4.86-1.94,6.9,6.9,0,0,0,1.72-4.74Z" transform="translate(-337.56 -198.83)"/><path class="cls-3" d="M933.18,540.54v-3.67h-.07a7.19,7.19,0,0,1-2.55,3,6.55,6.55,0,0,1-3.72,1.12,5.71,5.71,0,0,1-4.14-1.47,4.93,4.93,0,0,1-1.52-3.71q0-4.8,6.36-5.81l5.64-.84q0-5.91-4.44-5.91a9.05,9.05,0,0,0-5.9,2.44v-2a9,9,0,0,1,2.77-1.38,10.57,10.57,0,0,1,3.29-.57,5.54,5.54,0,0,1,4.38,1.76,7.5,7.5,0,0,1,1.55,5.11v11.93Zm-5.05-9.14a8.75,8.75,0,0,0-4,1.33,4.16,4.16,0,0,0-.08,5.69,4.14,4.14,0,0,0,3,1.06,5.67,5.67,0,0,0,4.41-2,7.3,7.3,0,0,0,1.76-5.06v-1.79Z" transform="translate(-337.56 -198.83)"/><path class="cls-3" d="M953.38,540.54V537.2h-.07a6.7,6.7,0,0,1-2.65,2.76,7.73,7.73,0,0,1-4,1,7,7,0,0,1-5.53-2.47,10.09,10.09,0,0,1-2.14-6.83,10.73,10.73,0,0,1,2.34-7.19,7.59,7.59,0,0,1,6.07-2.75,6.1,6.1,0,0,1,5.88,3.39h.07V513.37H955v27.17Zm0-11.16a6.23,6.23,0,0,0-1.62-4.35,5.61,5.61,0,0,0-4.36-1.78,6,6,0,0,0-4.77,2.21,10.89,10.89,0,0,0-.19,12,5.38,5.38,0,0,0,4.36,2.07,6.14,6.14,0,0,0,4.86-1.94,6.9,6.9,0,0,0,1.72-4.74Z" transform="translate(-337.56 -198.83)"/><path class="cls-3" d="M961.3,531.43a9.07,9.07,0,0,0,1.75,5.91,5.86,5.86,0,0,0,4.79,2.13,9.75,9.75,0,0,0,6-2.28V539a10.72,10.72,0,0,1-6.36,2,7.2,7.2,0,0,1-5.73-2.54q-2.19-2.54-2.19-7.19a10.23,10.23,0,0,1,2.29-6.76,7.36,7.36,0,0,1,5.94-2.75,6.2,6.2,0,0,1,5.25,2.4,10.58,10.58,0,0,1,1.83,6.56v.73Zm11.86-1.5a8.12,8.12,0,0,0-1.52-4.93,4.74,4.74,0,0,0-3.91-1.76,5.73,5.73,0,0,0-4.27,1.73,8.3,8.3,0,0,0-2.09,5Z" transform="translate(-337.56 -198.83)"/><rect class="cls-7" y="282.58" width="644.92" height="7.48" rx="3" ry="3"/></svg>